<?xml version="1.0" encoding="UTF-8" standalone="no"?>
<!-- Created with Inkscape (http://www.inkscape.org/) -->

<svg
   width="103.11764mm"
   height="103.62891mm"
   viewBox="0 0 103.11764 103.62891"
   version="1.1"
   id="svg1"
   inkscape:version="1.4 (86a8ad7, 2024-10-11)"
   sodipodi:docname="goji-websafe.svg"
   xmlns:inkscape="http://www.inkscape.org/namespaces/inkscape"
   xmlns:sodipodi="http://sodipodi.sourceforge.net/DTD/sodipodi-0.dtd"
   xmlns="http://www.w3.org/2000/svg"
   xmlns:svg="http://www.w3.org/2000/svg">
  <sodipodi:namedview
     id="namedview1"
     pagecolor="#ffffff"
     bordercolor="#000000"
     borderopacity="0.25"
     inkscape:showpageshadow="2"
     inkscape:pageopacity="0.0"
     inkscape:pagecheckerboard="0"
     inkscape:deskcolor="#d1d1d1"
     inkscape:document-units="mm"
     inkscape:zoom="1.0806047"
     inkscape:cx="188.32048"
     inkscape:cy="380.8053"
     inkscape:window-width="2560"
     inkscape:window-height="1494"
     inkscape:window-x="-11"
     inkscape:window-y="-11"
     inkscape:window-maximized="1"
     inkscape:current-layer="layer1" />
  <defs
     id="defs1">
    <rect
       x="270.21909"
       y="455.30066"
       width="278.54774"
       height="202.6643"
       id="rect2" />
  </defs>
  <g
     inkscape:label="Layer 1"
     inkscape:groupmode="layer"
     id="layer1"
     transform="translate(-22.3465,-48.033909)">
    <rect
       style="fill:#1a1a1a;fill-opacity:1;stroke-width:0.264583"
       id="rect1"
       width="100"
       height="100"
       x="25.46414"
       y="51.662819"
       ry="8.5696621" />
    <rect
       style="fill:#e71d36;fill-opacity:1;stroke-width:0.264583"
       id="rect1-8"
       width="100"
       height="100"
       x="22.3465"
       y="48.033909"
       ry="8.5696621" />
    <path
       style="font-size:96px;font-family:'Instrument Serif';-inkscape-font-specification:'Instrument Serif';text-align:center;text-anchor:middle;white-space:pre;shape-padding:23.1352;fill:#ffffff"
       d="m 362.59707,566.64756 q -7.776,0 -13.152,-4.416 -5.376,-4.416 -8.16,-12.384 -2.784,-8.064 -2.784,-19.008 0,-10.56 3.264,-18.432 3.264,-7.968 8.928,-12.288 5.76,-4.416 13.152,-4.416 3.744,0 6.816,0.768 3.072,0.672 5.376,1.824 1.248,0.672 1.248,2.016 l 0.288,14.592 q 0,1.632 -1.152,1.632 -1.056,0 -1.344,-1.248 l -0.768,-2.88 q -2.112,-7.968 -4.8,-10.944 -2.688,-2.976 -7.392,-2.976 -7.008,0 -11.616,8.352 -4.512,8.256 -4.512,24 0,16.224 4.608,24.768 4.704,8.448 12,8.448 3.936,0 5.952,-1.728 2.016,-1.728 2.016,-6.432 v -21.024 q 0,-2.016 -0.672,-2.784 -0.576,-0.768 -2.592,-0.96 l -3.744,-0.384 q -1.248,-0.096 -1.248,-1.152 0,-1.056 1.44,-1.056 h 17.568 q 1.44,0 1.44,1.152 0,0.864 -1.056,1.056 l -1.44,0.192 q -2.112,0.288 -2.496,1.152 -0.384,0.864 -0.384,2.88 v 26.016 q 0,1.056 -0.576,1.728 -0.576,0.576 -2.016,1.344 -2.304,1.152 -5.28,1.824 -2.976,0.768 -6.912,0.768 z m 47.99999,0 q -4.608,0 -8.64,-2.688 -4.032,-2.784 -7.104,-7.584 -2.976,-4.8 -4.704,-11.232 -1.632,-6.528 -1.632,-14.016 0,-7.488 1.632,-13.92 1.728,-6.432 4.704,-11.232 3.072,-4.896 7.104,-7.584 4.032,-2.688 8.64,-2.688 4.608,0 8.544,2.688 4.032,2.688 7.104,7.584 3.072,4.8 4.704,11.232 1.728,6.432 1.728,13.92 0,7.488 -1.728,14.016 -1.632,6.432 -4.704,11.232 -3.072,4.8 -7.104,7.584 -3.936,2.688 -8.544,2.688 z m 0,-2.592 q 6.816,0 10.656,-8.16 3.84,-8.16 3.84,-24.768 0,-16.608 -3.84,-24.672 -3.84,-8.16 -10.656,-8.16 -6.72,0 -10.656,8.16 -3.84,8.064 -3.84,24.672 0,16.608 3.84,24.768 3.936,8.16 10.656,8.16 z m 27.26409,22.368 q -2.976,0 -4.8,-1.632 -1.92,-1.536 -1.92,-4.128 0,-1.92 1.152,-3.168 1.056,-1.248 2.784,-1.248 1.632,0 2.304,0.96 0.672,0.96 1.056,2.208 0.48,1.248 1.056,2.208 0.576,0.96 1.824,0.96 1.824,0 2.784,-2.112 0.96,-2.112 0.96,-5.952 v -71.52 q 0,-2.016 -0.672,-2.688 -0.576,-0.672 -2.592,-1.056 l -2.208,-0.384 q -1.248,-0.288 -1.248,-1.152 0,-1.056 1.44,-1.056 h 17.376 q 1.44,0 1.44,1.056 0,0.864 -1.248,1.152 l -2.208,0.384 q -2.016,0.384 -2.688,1.056 -0.576,0.672 -0.576,2.688 v 58.56 q 0,11.52 -3.744,18.144 -3.744,6.72 -10.272,6.72 z m 25.82405,-20.64 q -1.44,0 -1.44,-1.056 0,-0.864 1.248,-1.152 l 2.208,-0.384 q 2.016,-0.384 2.592,-1.056 0.672,-0.672 0.672,-2.688 v -56.448 q 0,-2.016 -0.672,-2.688 -0.576,-0.672 -2.592,-1.056 l -2.208,-0.384 q -1.248,-0.288 -1.248,-1.152 0,-1.056 1.44,-1.056 h 17.376 q 1.44,0 1.44,1.056 0,0.864 -1.248,1.152 l -2.208,0.384 q -2.016,0.384 -2.688,1.056 -0.576,0.672 -0.576,2.688 v 56.448 q 0,2.016 0.576,2.688 0.672,0.672 2.688,1.056 l 2.208,0.384 q 1.248,0.288 1.248,1.152 0,1.056 -1.44,1.056 z"
       id="text1"
       transform="matrix(0.26458333,0,0,0.26458333,-8.2853432,-7.6926529)"
       aria-label="GOJI" />
  </g>
</svg>
